<svg width="65" height="65" viewBox="0 0 65 65" fill="none" xmlns="http://www.w3.org/2000/svg">
<mask id="mask0_2807_27523" style="mask-type:luminance" maskUnits="userSpaceOnUse" x="0" y="0" width="65" height="65">
<path fill-rule="evenodd" clip-rule="evenodd" d="M0.000366211 0H64.1081V64.108H0.000366211V0Z" fill="white"/>
</mask>
<g mask="url(#mask0_2807_27523)">
<path fill-rule="evenodd" clip-rule="evenodd" d="M64.1084 32.0539C64.1084 49.7571 49.7573 64.1082 32.054 64.1082C14.3515 64.1082 0.000366211 49.7571 0.000366211 32.0539C0.000366211 14.3507 14.3515 -0.000488281 32.054 -0.000488281C49.7573 -0.000488281 64.1084 14.3507 64.1084 32.0539" fill="#0A0A0A"/>
</g>
<path fill-rule="evenodd" clip-rule="evenodd" d="M22.4526 31.8471C22.4526 29.8658 21.017 28.5163 18.9787 28.5163C16.9396 28.5163 15.5041 29.8658 15.5041 31.8471C15.5041 33.8283 16.9396 35.1778 18.9787 35.1778C21.017 35.1778 22.4526 33.8283 22.4526 31.8471V31.8471ZM26.6449 24.9564V39.1851C26.6449 44.0085 22.8834 46.0475 19.0647 46.0475C16.0787 46.0475 13.5806 44.9272 12.2594 42.5729L15.9349 40.4485C16.4799 41.4533 17.3133 42.2577 19.2078 42.2577C21.218 42.2577 22.4526 41.2241 22.4526 39.1851V37.274C21.5049 38.4508 20.1265 39.1403 18.2602 39.1403C14.1835 39.1403 11.1975 35.8096 11.1975 31.8471C11.1975 27.8853 14.1835 24.5538 18.2602 24.5538C20.1265 24.5538 21.5049 25.2434 22.4526 26.4208V24.9564H26.6449Z" fill="white"/>
<mask id="mask1_2807_27523" style="mask-type:luminance" maskUnits="userSpaceOnUse" x="0" y="0" width="65" height="65">
<path fill-rule="evenodd" clip-rule="evenodd" d="M0 64.108H64.108V0H0V64.108Z" fill="white"/>
</mask>
<g mask="url(#mask1_2807_27523)">
<path fill-rule="evenodd" clip-rule="evenodd" d="M29.0835 39.3125H33.3901V24.9566H29.0835V39.3125ZM28.6521 21.109C28.6521 19.7024 29.8296 18.5249 31.2362 18.5249C32.6435 18.5249 33.8203 19.7024 33.8203 21.109C33.8203 22.5156 32.6435 23.6931 31.2362 23.6931C29.8296 23.6931 28.6521 22.5156 28.6521 21.109V21.109Z" fill="white"/>
<path fill-rule="evenodd" clip-rule="evenodd" d="M50.3289 24.9565L45.0169 39.3125H40.1364L34.8251 24.9565H39.5907L42.5766 34.0576L45.5626 24.9565H50.3289Z" fill="white"/>
<path fill-rule="evenodd" clip-rule="evenodd" d="M47.7438 36.9866C47.7438 35.4939 48.9784 34.2587 50.4717 34.2587C51.9643 34.2587 53.1989 35.4939 53.1989 36.9866C53.1989 38.4792 51.9643 39.7145 50.4717 39.7145C48.9784 39.7145 47.7438 38.4792 47.7438 36.9866" fill="white"/>
</g>
</svg>
